<?xml version="1.0" standalone="no"?>
<!DOCTYPE svg PUBLIC "-//W3C//DTD SVG 20010904//EN"
 "http://www.w3.org/TR/2001/REC-SVG-20010904/DTD/svg10.dtd">
<svg version="1.0" xmlns="http://www.w3.org/2000/svg"
 width="720.000000pt" height="720.000000pt" viewBox="0 0 720.000000 720.000000"
 preserveAspectRatio="xMidYMid meet">
<metadata>
Created by potrace 1.11, written by Peter Selinger 2001-2013
</metadata>
<g transform="translate(0.000000,720.000000) scale(0.100000,-0.100000)"
fill="#000000" stroke="none">
<path d="M0 5326 c0 -1243 3 -1877 10 -1881 7 -4 7 -12 0 -25 -7 -12 -10 -602
-10 -1719 l0 -1701 1249 0 c1182 0 1250 1 1254 18 3 9 17 69 32 132 14 63 30
131 35 150 5 19 41 166 80 325 39 160 80 323 90 363 l18 73 -60 60 c-34 32
-64 59 -68 59 -14 0 -38 70 -45 131 -6 58 -4 69 22 118 32 62 78 91 152 99
l47 4 -4 62 c-5 79 28 160 84 203 60 46 77 64 67 74 -8 8 -167 59 -185 59 -4
0 -8 -7 -8 -15 0 -31 -77 -5 -82 28 -2 14 -30 32 -108 66 -256 113 -452 234
-562 347 -126 129 -335 419 -411 569 -196 390 -251 989 -136 1505 43 193 95
339 196 550 150 315 253 448 493 641 344 276 655 418 1110 509 202 39 537 39
770 -1 334 -57 677 -205 878 -378 42 -37 127 -108 188 -158 60 -50 130 -115
155 -145 201 -238 375 -662 438 -1068 17 -111 31 -347 31 -540 0 -337 -50
-639 -146 -876 -49 -123 -70 -158 -203 -329 -195 -251 -366 -408 -628 -577
-95 -61 -200 -118 -220 -118 -7 0 -13 -2 -13 -6 0 -20 64 -240 72 -245 5 -3 6
-12 3 -20 -3 -8 6 -54 21 -104 36 -128 51 -186 75 -299 11 -54 27 -117 36
-140 17 -48 77 -267 103 -381 10 -44 52 -204 93 -355 41 -151 81 -301 88 -333
l14 -57 1092 0 1093 0 0 439 c0 342 -3 440 -12 444 -10 4 -10 6 0 6 9 1 12
198 12 950 0 940 0 949 -20 954 -25 7 -25 22 0 47 20 20 20 33 20 1120 0 727
-3 1100 -10 1100 -5 0 -10 7 -10 15 0 8 5 15 10 15 7 0 10 358 10 1055 l0
1055 -3600 0 -3600 0 0 -1874z m1010 1784 c0 -5 -7 -10 -15 -10 -8 0 -15 5
-15 10 0 6 7 10 15 10 8 0 15 -4 15 -10z m3800 0 c0 -5 -7 -10 -15 -10 -8 0
-15 5 -15 10 0 6 7 10 15 10 8 0 15 -4 15 -10z m-2540 -20 c0 -5 -5 -10 -11
-10 -5 0 -7 5 -4 10 3 6 8 10 11 10 2 0 4 -4 4 -10z m510 -25 c0 -16 -27 -32
-37 -22 -3 4 -3 13 0 22 8 20 37 20 37 0z m980 -40 c10 -12 9 -16 -5 -21 -19
-8 -40 9 -31 25 10 15 21 14 36 -4z m-3350 -56 c0 -5 -7 -9 -15 -9 -15 0 -20
12 -9 23 8 8 24 -1 24 -14z m3800 6 c0 -8 -7 -15 -15 -15 -16 0 -20 12 -8 23
11 12 23 8 23 -8z m-710 -13 c0 -13 -12 -22 -22 -16 -10 6 -1 24 13 24 5 0 9
-4 9 -8z m-377 -79 c11 -10 -13 -33 -34 -33 -12 0 -19 7 -19 20 0 14 7 20 23
20 13 0 27 -3 30 -7z m-2885 -26 c2 -10 -3 -17 -12 -17 -18 0 -29 16 -21 31 9
14 29 6 33 -14z m3807 13 c3 -5 -3 -10 -14 -10 -12 0 -21 5 -21 10 0 6 6 10
14 10 8 0 18 -4 21 -10z m-3297 -18 c2 -7 -3 -12 -12 -12 -9 0 -16 7 -16 16 0
17 22 14 28 -4z m922 3 c0 -8 -4 -15 -9 -15 -13 0 -22 16 -14 24 11 11 23 6
23 -9z m2162 5 c283 -27 656 -143 814 -251 58 -40 201 -113 255 -132 73 -24
145 -75 264 -188 217 -205 270 -270 345 -419 18 -36 56 -101 85 -145 193 -295
268 -537 300 -970 10 -130 24 -233 50 -358 36 -172 34 -243 -19 -477 -62 -277
-64 -283 -84 -274 -9 4 -35 12 -58 18 l-41 10 -6 265 c-7 294 -16 399 -53 573
-70 334 -183 614 -342 848 -63 93 -132 166 -237 250 -44 36 -117 97 -163 138
-246 217 -615 365 -1042 418 -230 28 -570 8 -790 -47 -405 -101 -748 -281
-1060 -558 -47 -41 -104 -96 -128 -121 -155 -163 -357 -555 -442 -858 -71
-251 -107 -547 -97 -802 l5 -135 -54 -24 c-30 -13 -56 -22 -57 -20 -2 2 -23
38 -46 79 -24 41 -58 98 -76 125 -78 121 -155 298 -175 402 -27 134 -10 213
105 507 66 170 75 217 75 392 0 113 4 162 17 199 18 54 112 209 197 325 30 41
83 116 117 165 221 318 486 586 734 742 90 57 308 160 395 188 332 104 889
166 1212 135z m718 -11 c0 -5 -7 -9 -15 -9 -15 0 -20 12 -9 23 8 8 24 -1 24
-14z m-2220 -19 c0 -5 -4 -10 -10 -10 -5 0 -10 5 -10 10 0 6 5 10 10 10 6 0
10 -4 10 -10z m-2227 -36 c-3 -8 -14 -14 -24 -14 -21 0 -24 11 -8 27 15 15 39
5 32 -13z m6357 6 c0 -5 -4 -10 -10 -10 -5 0 -10 5 -10 10 0 6 5 10 10 10 6 0
10 -4 10 -10z m518 -94 c-4 -30 -42 -28 -46 3 -2 13 2 27 9 32 18 11 41 -10
37 -35z m-1830 -14 c5 -30 -39 -57 -67 -42 -27 14 -27 44 0 71 18 18 23 19 42
6 12 -8 23 -24 25 -35z m-3530 -28 c4 -28 -24 -51 -46 -38 -23 15 -25 29 -6
48 21 22 48 17 52 -10z m-1002 1 c4 -8 1 -22 -6 -30 -18 -21 -50 -19 -50 3 0
36 45 57 56 27z m94 -20 c0 -8 -7 -15 -15 -15 -8 0 -15 7 -15 15 0 8 7 15 15
15 8 0 15 -7 15 -15z m1530 -75 c-15 -10 -40 -13 -40 -6 0 3 7 12 16 21 12 12
20 13 28 5 8 -8 7 -13 -4 -20z m-1380 -50 c0 -23 -10 -26 -28 -8 -18 18 -15
28 8 28 13 0 20 -7 20 -20z m6185 10 c3 -5 1 -10 -4 -10 -6 0 -11 5 -11 10 0
6 2 10 4 10 3 0 8 -4 11 -10z m-1011 -96 c8 -21 -1 -34 -25 -34 -34 0 -23 45
12 49 4 1 10 -6 13 -15z m866 12 c0 -3 -4 -8 -10 -11 -5 -3 -10 -1 -10 4 0 6
5 11 10 11 6 0 10 -2 10 -4z m-6520 -32 c0 -9 -5 -14 -12 -12 -18 6 -21 28 -4
28 9 0 16 -7 16 -16z m794 -152 c6 -10 -21 -52 -33 -52 -19 0 -42 27 -35 43 6
18 58 24 68 9z m4356 -2 c0 -5 -4 -10 -10 -10 -5 0 -10 5 -10 10 0 6 5 10 10
10 6 0 10 -4 10 -10z m-4676 -79 c9 -13 -19 -32 -38 -25 -17 6 -20 16 -9 27 9
10 41 9 47 -2z m4669 -13 c8 -24 -15 -59 -37 -56 -24 4 -33 33 -16 53 15 18
47 20 53 3z m-4203 -238 c0 -5 -5 -10 -11 -10 -5 0 -7 5 -4 10 3 6 8 10 11 10
2 0 4 -4 4 -10z m4700 -40 c0 -5 -4 -10 -10 -10 -5 0 -10 5 -10 10 0 6 5 10
10 10 6 0 10 -4 10 -10z m-4980 -10 c0 -5 -5 -10 -11 -10 -5 0 -7 5 -4 10 3 6
8 10 11 10 2 0 4 -4 4 -10z m4872 -5 c0 -5 -5 -11 -11 -13 -6 -2 -11 4 -11 13
0 9 5 15 11 13 6 -2 11 -8 11 -13z m100 -30 c0 -5 -5 -11 -11 -13 -6 -2 -11 4
-11 13 0 9 5 15 11 13 6 -2 11 -8 11 -13z m-4642 -35 c0 -5 -4 -10 -10 -10 -5
0 -10 5 -10 10 0 6 5 10 10 10 6 0 10 -4 10 -10z m-250 -20 c0 -5 -4 -10 -10
-10 -5 0 -10 5 -10 10 0 6 5 10 10 10 6 0 10 -4 10 -10z m4855 -20 c-3 -5 -11
-10 -16 -10 -6 0 -7 5 -4 10 3 6 11 10 16 10 6 0 7 -4 4 -10z m-5767 -41 c-2
-6 -8 -10 -13 -10 -5 0 -11 4 -13 10 -2 6 4 11 13 11 9 0 15 -5 13 -11z m5597
2 c7 -12 -12 -24 -25 -16 -11 7 -4 25 10 25 5 0 11 -4 15 -9z m-5682 -27 c8
-9 -11 -44 -23 -44 -6 0 -10 8 -10 18 0 27 18 41 33 26z m5637 -78 c0 -11 -19
-15 -25 -6 -3 5 1 10 9 10 9 0 16 -2 16 -4z m-4962 -47 c-2 -6 -8 -10 -13 -10
-5 0 -11 4 -13 10 -2 6 4 11 13 11 9 0 15 -5 13 -11z m5772 -63 c0 -3 -4 -8
-10 -11 -5 -3 -10 -1 -10 4 0 6 5 11 10 11 6 0 10 -2 10 -4z m-5492 -364 c3
-16 -2 -22 -16 -22 -24 0 -35 23 -19 39 16 16 31 8 35 -17z m6082 -92 c0 -5
-7 -10 -15 -10 -8 0 -15 5 -15 10 0 6 7 10 15 10 8 0 15 -4 15 -10z m-6946
-136 c23 -9 20 -41 -5 -54 -35 -19 -65 20 -37 48 14 14 20 14 42 6z m6846
-194 c0 -5 -2 -10 -4 -10 -3 0 -8 5 -11 10 -3 6 -1 10 4 10 6 0 11 -4 11 -10z
m-430 -139 c0 -20 -17 -31 -37 -24 -7 3 -13 13 -13 24 0 14 7 19 25 19 18 0
25 -5 25 -19z m-151 -147 c-6 -8 -17 -14 -23 -13 -7 0 -6 2 2 6 6 2 12 11 12
19 0 9 5 12 10 9 8 -5 7 -11 -1 -21z m51 -209 c0 -8 -4 -15 -9 -15 -13 0 -22
16 -14 24 11 11 23 6 23 -9z m300 -45 c0 -13 -7 -20 -20 -20 -13 0 -20 7 -20
20 0 13 7 20 20 20 13 0 20 -7 20 -20z m20 -170 c0 -5 -4 -10 -10 -10 -5 0
-10 5 -10 10 0 6 5 10 10 10 6 0 10 -4 10 -10z m-580 -45 c0 -8 -7 -15 -15
-15 -8 0 -15 7 -15 15 0 8 7 15 15 15 8 0 15 -7 15 -15z m-5795 -74 c0 -8 -8
-19 -17 -25 -22 -13 -44 5 -34 29 7 20 51 16 51 -4z m5696 -41 c28 -16 25 -65
-5 -85 -50 -33 -93 36 -50 79 18 19 28 20 55 6z m108 -59 c12 -8 13 -12 2 -25
-16 -19 -43 -3 -34 20 6 16 12 17 32 5z m-44 -31 c0 -8 -10 -16 -22 -18 -22
-3 -32 16 -16 32 12 11 38 2 38 -14z m795 -6 c0 -8 -9 -14 -20 -14 -22 0 -26
10 -8 28 13 13 28 7 28 -14z m-640 -124 c0 -13 -37 -13 -45 0 -3 6 -3 15 0 20
7 12 45 -5 45 -20z m-526 -25 c78 -37 157 -117 196 -201 64 -133 48 -309 -37
-421 -82 -107 -176 -161 -310 -178 -53 -7 -158 9 -168 25 -3 5 4 28 16 51 75
148 145 435 164 673 l8 88 36 -5 c21 -2 63 -17 95 -32z m1174 3 c-6 -18 -28
-21 -28 -4 0 9 7 16 16 16 9 0 14 -5 12 -12z m-5625 -120 c34 -232 94 -436
175 -590 25 -49 42 -91 38 -95 -4 -5 -56 -8 -115 -8 -101 0 -110 2 -176 34
-131 65 -216 183 -236 331 -18 128 24 250 121 347 45 46 135 102 165 103 6 0
19 -55 28 -122z m5717 -13 c0 -8 -4 -15 -9 -15 -13 0 -22 16 -14 24 11 11 23
6 23 -9z m-140 -90 c0 -8 -4 -15 -9 -15 -13 0 -22 16 -14 24 11 11 23 6 23 -9z
m-150 -345 c0 -5 -5 -10 -11 -10 -5 0 -7 5 -4 10 3 6 8 10 11 10 2 0 4 -4 4
-10z m-280 -50 c0 -5 -5 -10 -11 -10 -5 0 -7 5 -4 10 3 6 8 10 11 10 2 0 4 -4
4 -10z m330 -70 c0 -5 -2 -10 -4 -10 -3 0 -8 5 -11 10 -3 6 -1 10 4 10 6 0 11
-4 11 -10z m-250 -20 c0 -5 -4 -10 -10 -10 -5 0 -10 5 -10 10 0 6 5 10 10 10
6 0 10 -4 10 -10z m-730 -130 c0 -5 -4 -10 -10 -10 -5 0 -10 5 -10 10 0 6 5
10 10 10 6 0 10 -4 10 -10z m-5686 -19 c4 -5 3 -17 0 -26 -10 -24 -48 -15 -52
13 -3 18 1 22 22 22 14 0 27 -4 30 -9z m693 -17 c7 -19 -20 -49 -36 -40 -12 8
-15 39 -4 49 12 12 33 7 40 -9z m4753 6 c0 -5 -4 -10 -10 -10 -5 0 -10 5 -10
10 0 6 5 10 10 10 6 0 10 -4 10 -10z m650 -51 c0 -5 -7 -9 -15 -9 -15 0 -20
12 -9 23 8 8 24 -1 24 -14z m-4909 -39 c22 -12 27 -68 7 -88 -13 -13 -47 -16
-72 -6 -25 10 -21 70 6 88 26 19 33 19 59 6z m4289 -35 c0 -8 -7 -15 -15 -15
-8 0 -15 7 -15 15 0 8 7 15 15 15 8 0 15 -7 15 -15z m1376 -81 c-3 -9 -6 -18
-6 -20 0 -2 -7 -4 -15 -4 -18 0 -19 12 -3 28 17 17 31 15 24 -4z m89 -154 c-5
-8 -11 -8 -17 -2 -6 6 -7 16 -3 22 5 8 11 8 17 2 6 -6 7 -16 3 -22z m-275 0
c0 -5 -4 -10 -10 -10 -5 0 -10 5 -10 10 0 6 5 10 10 10 6 0 10 -4 10 -10z
m-960 -10 c0 -5 -7 -10 -16 -10 -8 0 -12 5 -9 10 3 6 10 10 16 10 5 0 9 -4 9
-10z m-5620 -40 c0 -23 -10 -26 -28 -8 -18 18 -15 28 8 28 13 0 20 -7 20 -20z
m6720 -36 c0 -17 -22 -14 -28 4 -2 7 3 12 12 12 9 0 16 -7 16 -16z m-1730
-119 c0 -8 -4 -15 -9 -15 -13 0 -22 16 -14 24 11 11 23 6 23 -9z m322 -40 c0
-5 -5 -11 -11 -13 -6 -2 -11 4 -11 13 0 9 5 15 11 13 6 -2 11 -8 11 -13z
m-5172 -20 c0 -8 -7 -15 -15 -15 -8 0 -15 7 -15 15 0 8 7 15 15 15 8 0 15 -7
15 -15z m4575 -45 c-5 -8 -11 -8 -17 -2 -6 6 -7 16 -3 22 5 8 11 8 17 2 6 -6
7 -16 3 -22z m1995 10 c0 -5 -4 -10 -10 -10 -5 0 -10 5 -10 10 0 6 5 10 10 10
6 0 10 -4 10 -10z m-1960 -45 c0 -8 -4 -15 -9 -15 -13 0 -22 16 -14 24 11 11
23 6 23 -9z m538 -96 c-2 -6 -8 -10 -13 -10 -5 0 -11 4 -13 10 -2 6 4 11 13
11 9 0 15 -5 13 -11z m-868 -100 c0 -5 -7 -9 -15 -9 -15 0 -20 12 -9 23 8 8
24 -1 24 -14z m540 5 c0 -14 -3 -14 -15 -4 -8 7 -15 14 -15 16 0 2 7 4 15 4 8
0 15 -7 15 -16z m640 -94 c0 -5 -5 -10 -11 -10 -5 0 -7 5 -4 10 3 6 8 10 11
10 2 0 4 -4 4 -10z m1090 -260 c0 -5 -4 -10 -10 -10 -5 0 -10 5 -10 10 0 6 5
10 10 10 6 0 10 -4 10 -10z m-5150 -10 c0 -5 -4 -10 -10 -10 -5 0 -10 5 -10
10 0 6 5 10 10 10 6 0 10 -4 10 -10z m472 -62 c-15 -15 -26 -4 -18 18 5 13 9
15 18 6 9 -9 9 -15 0 -24z m3846 14 c2 -7 -3 -12 -12 -12 -9 0 -16 7 -16 16 0
17 22 14 28 -4z m952 3 c0 -8 -4 -15 -9 -15 -13 0 -22 16 -14 24 11 11 23 6
23 -9z m-540 -100 c0 -8 -7 -15 -15 -15 -16 0 -20 12 -8 23 11 12 23 8 23 -8z
m-5110 -49 c0 -3 -4 -8 -10 -11 -5 -3 -10 -1 -10 4 0 6 5 11 10 11 6 0 10 -2
10 -4z m5228 -24 c2 -7 -3 -12 -12 -12 -9 0 -16 7 -16 16 0 17 22 14 28 -4z
m-661 -47 c3 -9 2 -19 -1 -23 -8 -8 -38 10 -44 26 -6 18 38 14 45 -3z m783
-21 c0 -17 -22 -14 -28 4 -2 7 3 12 12 12 9 0 16 -7 16 -16z m-6612 -15 c-2
-6 -8 -10 -13 -10 -5 0 -11 4 -13 10 -2 6 4 11 13 11 9 0 15 -5 13 -11z m1012
-194 c0 -8 -4 -15 -9 -15 -13 0 -22 16 -14 24 11 11 23 6 23 -9z m746 -31 c-5
-13 -10 -14 -18 -6 -6 6 -8 18 -4 28 5 13 10 14 18 6 6 -6 8 -18 4 -28z m3545
13 c-13 -13 -26 -3 -16 12 3 6 11 8 17 5 6 -4 6 -10 -1 -17z m-233 -128 c-2
-6 -8 -10 -13 -10 -5 0 -11 4 -13 10 -2 6 4 11 13 11 9 0 15 -5 13 -11z
m-3298 -24 c0 -8 -7 -15 -15 -15 -8 0 -15 7 -15 15 0 8 7 15 15 15 8 0 15 -7
15 -15z m5125 -5 c3 -5 1 -10 -4 -10 -6 0 -11 5 -11 10 0 6 2 10 4 10 3 0 8
-4 11 -10z m-1287 -72 c-6 -18 -28 -21 -28 -4 0 9 7 16 16 16 9 0 14 -5 12
-12z m-3746 -53 c0 -5 -5 -11 -11 -13 -6 -2 -11 4 -11 13 0 9 5 15 11 13 6 -2
11 -8 11 -13z m-1732 1 c0 -3 -4 -8 -10 -11 -5 -3 -10 -1 -10 4 0 6 5 11 10
11 6 0 10 -2 10 -4z m1590 -91 c0 -8 -4 -15 -9 -15 -13 0 -22 16 -14 24 11 11
23 6 23 -9z m4740 -55 c0 -5 -2 -10 -4 -10 -3 0 -8 5 -11 10 -3 6 -1 10 4 10
6 0 11 -4 11 -10z m-1570 -40 c0 -5 -4 -10 -10 -10 -5 0 -10 5 -10 10 0 6 5
10 10 10 6 0 10 -4 10 -10z m-90 -64 c0 -3 -4 -8 -10 -11 -5 -3 -10 -1 -10 4
0 6 5 11 10 11 6 0 10 -2 10 -4z m210 -36 c0 -5 -5 -10 -11 -10 -5 0 -7 5 -4
10 3 6 8 10 11 10 2 0 4 -4 4 -10z m-4760 -20 c0 -5 -4 -10 -10 -10 -5 0 -10
5 -10 10 0 6 5 10 10 10 6 0 10 -4 10 -10z m4980 -20 c0 -5 -4 -10 -10 -10 -5
0 -10 5 -10 10 0 6 5 10 10 10 6 0 10 -4 10 -10z m1670 -15 c0 -25 -23 -35
-35 -15 -10 16 2 40 20 40 9 0 15 -9 15 -25z m-6620 -15 c0 -5 -4 -10 -10 -10
-5 0 -10 5 -10 10 0 6 5 10 10 10 6 0 10 -4 10 -10z m145 -40 c0 -22 -29 -18
-33 3 -3 14 1 18 15 15 10 -2 18 -10 18 -18z m790 -3 c21 -16 12 -37 -16 -37
-14 0 -19 7 -19 25 0 28 8 31 35 12z m-1330 -7 c3 -5 -1 -10 -9 -10 -9 0 -16
5 -16 10 0 6 4 10 9 10 6 0 13 -4 16 -10z m310 -9 c3 -5 1 -12 -5 -16 -5 -3
-10 1 -10 9 0 18 6 21 15 7z m5145 -31 c0 -5 -2 -10 -4 -10 -3 0 -8 5 -11 10
-3 6 -1 10 4 10 6 0 11 -4 11 -10z m-330 -40 c0 -5 -4 -10 -10 -10 -5 0 -10 5
-10 10 0 6 5 10 10 10 6 0 10 -4 10 -10z m-4349 -45 c-1 -15 -24 -12 -29 3 -3
9 2 13 12 10 10 -1 17 -7 17 -13z m4379 -5 c0 -5 -2 -10 -4 -10 -3 0 -8 5 -11
10 -3 6 -1 10 4 10 6 0 11 -4 11 -10z m146 -31 c10 -17 -13 -36 -27 -22 -12
12 -4 33 11 33 5 0 12 -5 16 -11z m792 -27 c3 -17 -2 -22 -17 -22 -16 0 -21 6
-21 26 0 33 33 30 38 -4z m-4338 -12 c0 -5 -5 -10 -11 -10 -5 0 -7 5 -4 10 3
6 8 10 11 10 2 0 4 -4 4 -10z m3320 6 c0 -3 -4 -8 -10 -11 -5 -3 -10 -1 -10 4
0 6 5 11 10 11 6 0 10 -2 10 -4z"/>
<path d="M4170 5661 c-15 -5 36 -10 125 -14 100 -4 190 -14 270 -31 128 -27
296 -78 333 -102 12 -8 22 -10 22 -4 0 14 -47 36 -151 69 -217 70 -506 109
-599 82z"/>
<path d="M2664 5646 c-103 -15 -229 -42 -294 -63 -98 -31 -180 -65 -180 -74 0
-5 24 1 53 12 201 82 563 144 692 120 50 -9 65 -8 51 6 -13 13 -227 12 -322
-1z"/>
<path d="M4390 5362 c-216 -61 -419 -223 -508 -404 -70 -144 -87 -219 -87
-398 0 -116 5 -172 18 -220 57 -215 206 -370 440 -461 100 -38 159 -49 266
-49 263 0 519 103 653 262 130 154 188 317 188 526 0 299 -146 535 -415 667
-131 64 -216 86 -365 91 -101 3 -138 1 -190 -14z m251 -2 c281 -32 519 -186
628 -406 55 -111 75 -204 75 -344 0 -188 -45 -326 -156 -474 -120 -160 -315
-257 -576 -286 -203 -23 -395 31 -563 158 -171 130 -239 291 -239 564 0 143
14 217 63 336 99 241 397 452 652 461 17 0 69 -4 116 -9z"/>
<path d="M4620 4719 c0 -13 -8 -23 -21 -26 -16 -5 -19 -11 -14 -32 8 -33 13
-37 50 -45 25 -5 37 0 69 29 l39 35 -26 26 c-15 15 -33 24 -41 21 -9 -4 -18
-2 -21 3 -11 18 -35 10 -35 -11z"/>
<path d="M2510 5339 c-240 -63 -459 -239 -559 -452 -53 -114 -75 -222 -73
-372 2 -349 158 -563 497 -683 180 -63 467 -31 680 75 295 148 456 499 386
838 -31 152 -92 268 -195 370 -195 193 -499 286 -736 224z m318 -15 c76 -16
178 -55 247 -94 319 -180 449 -563 314 -929 -58 -159 -186 -302 -333 -376
-157 -78 -366 -124 -511 -112 -254 21 -489 173 -590 382 -77 159 -86 418 -20
612 94 277 376 500 680 537 44 5 130 -3 213 -20z"/>
<path d="M2601 4741 c-26 -11 -45 -25 -47 -36 -1 -10 -7 -22 -13 -28 -16 -16
-13 -37 7 -44 9 -4 22 -13 28 -21 9 -13 14 -11 31 7 13 14 23 19 28 12 11 -19
23 -12 39 20 10 20 12 36 7 43 -5 6 -11 22 -13 35 -4 32 -14 33 -67 12z"/>
<path d="M3702 3920 c132 -66 179 -113 178 -177 -1 -44 -32 -95 -70 -117 -65
-38 -267 -18 -358 35 -37 21 -42 23 -42 11 0 -12 66 -42 140 -63 77 -23 206
-25 254 -5 65 27 103 105 84 174 -6 20 -27 53 -47 72 -42 40 -169 110 -197
109 -11 0 16 -18 58 -39z"/>
<path d="M3620 3329 c-468 -34 -794 -206 -871 -461 -62 -202 30 -383 250 -493
27 -14 53 -25 59 -25 16 0 65 216 59 258 -5 25 -3 32 3 22 9 -14 14 -7 11 13
-1 4 6 24 14 43 18 43 18 47 5 39 -5 -3 -10 1 -10 10 0 9 4 14 8 11 4 -2 14
16 21 42 7 26 19 70 27 97 8 28 16 59 19 70 31 135 77 300 86 306 45 27 296
59 475 59 155 0 368 -39 386 -71 7 -12 62 -218 104 -389 8 -30 23 -89 35 -130
12 -41 29 -106 39 -145 22 -83 47 -172 52 -183 4 -10 14 -6 75 35 128 85 186
213 163 361 -30 190 -141 333 -335 430 -163 81 -418 119 -675 101z"/>
<path d="M4017 1990 c8 -42 32 -108 33 -92 0 17 -30 122 -35 122 -3 0 -2 -14
2 -30z"/>
<path d="M4084 2005 c-3 -8 -4 -20 -1 -27 4 -8 6 -6 6 5 1 9 8 17 17 17 8 0
12 5 9 10 -9 15 -25 12 -31 -5z"/>
<path d="M4120 1960 c0 -14 9 -45 20 -69 11 -24 20 -52 20 -62 0 -10 2 -19 4
-19 2 0 12 -3 21 -6 14 -6 15 -4 6 12 -6 10 -24 53 -41 94 -18 47 -29 66 -30
50z"/>
<path d="M4092 1930 c0 -19 2 -27 5 -17 2 9 2 25 0 35 -3 9 -5 1 -5 -18z"/>
<path d="M3991 1873 c0 -29 3 -53 7 -53 4 0 6 17 4 38 -6 64 -10 69 -11 15z"/>
<path d="M4053 1866 c5 -11 3 -22 -4 -27 -6 -4 12 -10 40 -14 29 -4 54 -5 57
-2 3 3 -6 17 -20 32 -25 27 -26 27 -26 6 0 -15 4 -20 13 -15 8 5 8 3 -1 -7
-11 -12 -17 -9 -40 16 -16 19 -23 23 -19 11z"/>
<path d="M4000 1791 c0 -25 6 -27 13 -6 4 8 2 17 -3 20 -6 4 -10 -3 -10 -14z"/>
<path d="M3025 1759 c-4 -6 -5 -12 -2 -15 2 -3 7 2 10 11 7 17 1 20 -8 4z"/>
<path d="M4255 1690 c-3 -5 0 -10 8 -10 8 0 33 -21 57 -46 23 -25 44 -43 46
-41 5 5 -58 73 -88 95 -11 9 -18 10 -23 2z"/>
<path d="M4369 1570 c-3 -8 0 -37 7 -65 11 -45 12 -47 12 -15 0 49 -12 99 -19
80z"/>
<path d="M4385 1390 c3 -5 8 -10 11 -10 2 0 4 5 4 10 0 6 -5 10 -11 10 -5 0
-7 -4 -4 -10z"/>
<path d="M4370 1341 c0 -5 7 -12 16 -15 14 -5 15 -4 4 9 -14 17 -20 19 -20 6z"/>
<path d="M4171 1294 c12 -14 65 -19 93 -8 31 12 15 19 -44 21 -51 1 -59 -1
-49 -13z"/>
<path d="M4423 1265 c7 -14 16 -25 20 -25 9 0 -9 36 -22 44 -5 4 -4 -5 2 -19z"/>
<path d="M4345 1210 c-3 -5 -1 -18 4 -27 9 -15 10 -14 9 10 -3 30 -4 32 -13
17z"/>
<path d="M4465 1170 c3 -5 8 -10 11 -10 2 0 4 5 4 10 0 6 -5 10 -11 10 -5 0
-7 -4 -4 -10z"/>
<path d="M4485 1150 c-8 -13 5 -13 25 0 13 8 13 10 -2 10 -9 0 -20 -4 -23 -10z"/>
<path d="M4380 1141 c0 -6 4 -13 10 -16 6 -3 7 1 4 9 -7 18 -14 21 -14 7z"/>
<path d="M4523 1100 c0 -25 2 -35 4 -22 2 12 2 32 0 45 -2 12 -4 2 -4 -23z"/>
<path d="M4558 1124 c-5 -4 -8 -16 -8 -28 0 -14 3 -17 11 -9 6 6 9 19 7 28 -1
9 -6 13 -10 9z"/>
<path d="M4410 1086 c0 -11 30 -66 36 -66 2 0 -3 15 -12 33 -19 36 -24 44 -24
33z"/>
<path d="M4390 1020 c0 -5 5 -10 11 -10 5 0 7 5 4 10 -3 6 -8 10 -11 10 -2 0
-4 -4 -4 -10z"/>
</g>
</svg>
